Coordinates
version=1
nRows=19
nColumns=24
inDegrees=yes

Units are S.I. units (second, meters, Newtons, ...)
Angles are in degrees.

endheader
time	pelvis_tilt	pelvis_list	pelvis_rotation	pelvis_tx	pelvis_ty	pelvis_tz	hip_flexion_r	hip_adduction_r	hip_rotation_r	knee_angle_r	ankle_angle_r	subtalar_angle_r	mtp_angle_r	hip_flexion_l	hip_adduction_l	hip_rotation_l	knee_angle_l	ankle_angle_l	subtalar_angle_l	mtp_angle_l	lumbar_extension	lumbar_bending	lumbar_rotation
      4.75000000	     54.28014585	    -14.92802608	      0.69975826	      0.43202652	      1.02653917	     -0.35965819	     21.59839614	      0.08326485	      4.71277010	    -53.07988033	      9.37519769	     50.97379644	      0.00000000	     18.97056680	    -24.71357868	     11.92375026	    -68.72729585	     26.06681506	     29.59965609	      0.00000000	      0.00000000	      0.00000000	      0.00000000
      4.76000000	     54.28132031	    -14.90775507	      0.71439562	      0.43206578	      1.02653336	     -0.35978832	     21.62373174	      0.01825428	      4.67474469	    -53.65594324	      9.55438783	     51.02231351	      0.00000000	     18.97249372	    -24.68136938	     11.93927768	    -68.74808622	     26.08074996	     29.58841340	      0.00000000	      0.00000000	      0.00000000	      0.00000000
      4.77000000	     54.27795474	    -14.89014731	      0.72940936	      0.43210175	      1.02655588	     -0.35994073	     21.63848307	     -0.05250061	      4.63018207	    -54.18728255	      9.72081929	     51.07360821	      0.00000000	     18.97550563	    -24.64924904	     11.95356454	    -68.76657476	     26.09504800	     29.57930188	      0.00000000	      0.00000000	      0.00000000	      0.00000000
      4.78000000	     54.26482226	    -14.87448002	      0.73903351	      0.43214225	      1.02659883	     -0.36010148	     21.65095715	     -0.12748478	      4.58135970	    -54.67405505	      9.86793050	     51.11452097	      0.00000000	     18.98476919	    -24.61917854	     11.96297576	    -68.78510033	     26.10967696	     29.57412253	      0.00000000	      0.00000000	      0.00000000	      0.00000000
      4.79000000	     54.24021641	    -14.85916317	      0.73737293	      0.43218790	      1.02664148	     -0.36024890	     21.67278170	     -0.20443670	      4.53371382	    -55.12999704	      9.98757996	     51.13126718	      0.00000000	     19.00541746	    -24.59256485	     11.96596907	    -68.80731679	     26.12492678	     29.57412919	      0.00000000	      0.00000000	      0.00000000	      0.00000000
      4.80000000	     54.20718339	    -14.84158803	      0.72119876	      0.43222893	      1.02663718	     -0.36034741	     21.71660524	     -0.27937122	      4.49613977	    -55.58339046	     10.07178901	     51.11232964	      0.00000000	     19.04084519	    -24.57002986	     11.96441406	    -68.83613743	     26.14134239	     29.57966348	      0.00000000	      0.00000000	      0.00000000	      0.00000000
      4.81000000	     54.17183434	    -14.81931536	      0.69362318	      0.43225111	      1.02651017	     -0.36035320	     21.79358988	     -0.34638981	      4.47981881	    -56.07128006	     10.11574215	     51.05105186	      0.00000000	     19.09006081	    -24.55115164	     11.96292309	    -68.87217049	     26.15942550	     29.59004568	      0.00000000	      0.00000000	      0.00000000	      0.00000000
      4.82000000	     54.14031866	    -14.79230693	      0.66608113	      0.43225340	      1.02620770	     -0.36024372	     21.91133994	     -0.39896122	      4.49495630	    -56.62543124	     10.12143461	     50.94732821	      0.00000000	     19.14574822	    -24.53423606	     11.96614922	    -68.91369215	     26.17917495	     29.60375723	      0.00000000	      0.00000000	      0.00000000	      0.00000000
      4.83000000	     54.11710069	    -14.76397838	      0.65442917	      0.43227437	      1.02581683	     -0.36007309	     22.07107742	     -0.43283222	      4.54558591	    -57.25321395	     10.10067609	     50.80795507	      0.00000000	     19.19620464	    -24.51693848	     11.97576251	    -68.95769385	     26.19971873	     29.61878597	      0.00000000	      0.00000000	      0.00000000	      0.00000000
      4.84000000	     54.10421406	    -14.73941478	      0.66782732	      0.43238580	      1.02560178	     -0.35998353	     22.26145604	     -0.44990780	      4.62417157	    -57.92263280	     10.07569246	     50.64552333	      0.00000000	     19.23218944	    -24.49820239	     11.98938365	    -69.00057155	     26.21931765	     29.63294944	      0.00000000	      0.00000000	      0.00000000	      0.00000000
      4.85000000	     54.09859461	    -14.72235172	      0.69714588	      0.43260668	      1.02575543	     -0.36007665	     22.45053945	     -0.46086914	      4.70974441	    -58.56316511	     10.07579670	     50.47607149	      0.00000000	     19.25394256	    -24.48013031	     12.00219862	    -69.03790009	     26.23579770	     29.64413719	      0.00000000	      0.00000000	      0.00000000	      0.00000000
      4.86000000	     54.08981824	    -14.71382649	      0.71617600	      0.43281177	      1.02604908	     -0.36024143	     22.58755910	     -0.48243367	      4.77404383	    -59.08851199	     10.12991480	     50.31594902	      0.00000000	     19.27067574	    -24.46742949	     12.00977156	    -69.06443856	     26.24717562	     29.65056464	      0.00000000	      0.00000000	      0.00000000	      0.00000000
      4.87000000	     54.06823145	    -14.71258380	      0.70228408	      0.43283253	      1.02602849	     -0.36025320	     22.62789213	     -0.52691763	      4.79627624	    -59.43433953	     10.25694465	     50.17844274	      0.00000000	     19.29086875	    -24.46405182	     12.01006344	    -69.07565514	     26.25217819	     29.65110786	      0.00000000	      0.00000000	      0.00000000	      0.00000000
      4.88000000	     54.03901865	    -14.71639916	      0.65956699	      0.43267887	      1.02567222	     -0.36009690	     22.56605352	     -0.59194504	      4.77695238	    -59.59159664	     10.45785741	     50.07078251	      0.00000000	     19.31215890	    -24.46986646	     12.00407419	    -69.07021007	     26.25054552	     29.64561749	      0.00000000	      0.00000000	      0.00000000	      0.00000000
      4.89000000	     54.01942342	    -14.72430531	      0.61657550	      0.43251160	      1.02542224	     -0.35998509	     22.43778978	     -0.66316231	      4.73696455	    -59.61449549	     10.71362083	     49.99226387	      0.00000000	     19.32181887	    -24.48054549	     11.99565746	    -69.05121290	     26.24315175	     29.63501302	      0.00000000	      0.00000000	      0.00000000	      0.00000000
      4.90000000	     54.02101423	    -14.73653998	      0.60023845	      0.43242702	      1.02553498	     -0.36004573	     22.29066451	     -0.72694037	      4.70242800	    -59.59569687	     10.99065865	     49.93427420	      0.00000000	     19.30825304	    -24.49042645	     11.99043890	    -69.02494034	     26.23188778	     29.62108719	      0.00000000	      0.00000000	      0.00000000	      0.00000000
      4.91000000	     54.04193176	    -14.75089952	      0.61574753	      0.43241497	      1.02583937	     -0.36019726	     22.16105920	     -0.77844589	      4.69036309	    -59.62291911	     11.25163097	     49.88265696	      0.00000000	     19.27231310	    -24.49546517	     11.99328940	    -68.99826890	     26.21917891	     29.60613234	      0.00000000	      0.00000000	      0.00000000	      0.00000000
      4.92000000	     54.07206824	    -14.76108099	      0.64822482	      0.43244337	      1.02606913	     -0.36030253	     22.07137723	     -0.82075230	      4.70498752	    -59.74355074	     11.46657753	     49.82207014	      0.00000000	     19.22826432	    -24.49416807	     12.00521258	    -68.97681430	     26.20722878	     29.59251844	      0.00000000	      0.00000000	      0.00000000	      0.00000000
      4.93000000	     54.09856623	    -14.76031099	      0.67707666	      0.43248740	      1.02612924	     -0.36030824	     22.03337224	     -0.86002382	      4.74218345	    -59.95503859	     11.61994905	     49.74107440	      0.00000000	     19.19532764	    -24.48652557	     12.02191235	    -68.96399949	     26.19737703	     29.58228015	      0.00000000	      0.00000000	      0.00000000	      0.00000000
